HIERARCHY
ROOT rootx
{
    OFFSET 0.0 0.0 0.0
    CHANNELS 6 Xposition Yposition Zposition Zrotation Xrotation Yrotation
    JOINT spine_01x
    {
        OFFSET 0.0 8.0 0.0
        CHANNELS 3 Zrotation Xrotation Yrotation
        JOINT spine_02x
        {
            OFFSET 0.0 8.0 0.0
            CHANNELS 3 Zrotation Xrotation Yrotation
            JOINT spine_03x
            {
                OFFSET 0.0 8.0 0.0
                CHANNELS 3 Zrotation Xrotation Yrotation
                JOINT neckx
                {
                    OFFSET 0.0 6.0 0.0
                    CHANNELS 3 Zrotation Xrotation Yrotation
                    JOINT headx
                    {
                        OFFSET 0.0 4.0 0.0
                        CHANNELS 3 Zrotation Xrotation Yrotation
                        End Site
                        {
                            OFFSET 0.0 2.0 0.0
                        }
                    }
                }
                JOINT shoulderr
                {
                    OFFSET 6.0 0.0 0.0
                    CHANNELS 3 Zrotation Xrotation Yrotation
                    JOINT arm_stretchr
                    {
                        OFFSET 0.0 -12.0 0.0
                        CHANNELS 3 Zrotation Xrotation Yrotation
                        JOINT forearm_stretchr
                        {
                            OFFSET 0.0 -12.0 0.0
                            CHANNELS 3 Zrotation Xrotation Yrotation
                            End Site
                            {
                                OFFSET 0.0 -4.0 0.0
                            }
                        }
                    }
                }
                JOINT shoulderl
                {
                    OFFSET -6.0 0.0 0.0
                    CHANNELS 3 Zrotation Xrotation Yrotation
                    JOINT arm_stretchl
                    {
                        OFFSET 0.0 -12.0 0.0
                        CHANNELS 3 Zrotation Xrotation Yrotation
                        JOINT forearm_stretchl
                        {
                            OFFSET 0.0 -12.0 0.0
                            CHANNELS 3 Zrotation Xrotation Yrotation
                            End Site
                            {
                                OFFSET 0.0 -4.0 0.0
                            }
                        }
                    }
                }
            }
        }
    }
    JOINT thigh_stretchl
    {
        OFFSET -3.0 0.0 0.0
        CHANNELS 3 Zrotation Xrotation Yrotation
        JOINT leg_stretchl
        {
            OFFSET 0.0 -15.0 0.0
            CHANNELS 3 Zrotation Xrotation Yrotation
            End Site
            {
                OFFSET 0.0 -5.0 0.0
            }
        }
    }
    JOINT thigh_stretchr
    {
        OFFSET 3.0 0.0 0.0
        CHANNELS 3 Zrotation Xrotation Yrotation
        JOINT leg_stretchr
        {
            OFFSET 0.0 -15.0 0.0
            CHANNELS 3 Zrotation Xrotation Yrotation
            End Site
            {
                OFFSET 0.0 -5.0 0.0
            }
        }
    }
}

MOTION
Frames: 25
Frame Time: 0.033333
0.000000 0.000000 1.500000 0.000000 0.000000 0.000000 0.000000 3.200000 0.000000 0.993347 1.932780 0.209315 1.168255 1.041383 0.248720 0.399334 1.586499 0.083931 0.591040 0.739927 0.125076 0.000000 10.000000 0.000000 3.494170 13.881867 0.734400 8.940120 17.395020 1.883832 0.000000 -5.877853 6.067627 -3.494170 -6.691289 8.042206 -8.940120 -6.480850 9.707582 0.000000 8.000000 0.000000 2.995002 11.898743 0.629486 0.000000 -4.702282 4.854102 -2.995002 -5.735391 6.893319
0.031415 0.000000 1.499918 0.104712 0.000000 0.047122 0.502324 3.189331 0.105523 1.248449 1.893333 0.263602 1.282940 1.007387 0.273971 0.627777 1.566538 0.132112 0.680389 0.719918 0.144362 1.308399 9.976843 0.274828 5.311988 13.726281 1.117723 11.236040 17.040000 2.372417 -1.308399 -5.313986 5.902013 -5.311988 -5.839381 7.789431 -11.236040 -5.323674 9.357289 0.837513 7.988142 0.175904 4.242369 11.796438 0.892425 -0.837513 -4.343051 4.748622 -4.242369 -5.153190 6.720715
0.062822 0.000000 1.499671 0.209378 0.000000 0.094232 1.002666 3.157395 0.210843 1.500129 1.845118 0.317535 1.395375 0.970404 0.298987 0.854139 1.537800 0.180078 0.768228 0.697208 0.163490 2.613212 9.907478 0.549286 7.115247 13.507122 1.499545 13.501163 16.606061 2.857815 -2.613212 -4.725508 5.728470 -7.115247 -4.960428 7.526194 -13.501163 -4.141842 8.994427 1.673557 7.952603 0.351657 5.482293 11.659162 1.154597 -1.673557 -3.970944 4.639059 -5.482293 -4.555712 6.542333
0.094213 0.000000 1.499260 0.313953 0.000000 0.141319 1.499051 3.104405 0.315754 1.747698 1.788357 0.371042 1.505362 0.930545 0.323745 1.077668 1.500443 0.227752 0.854360 0.671883 0.182441 3.910862 9.792228 0.823007 8.899004 13.225406 1.879353 15.729281 16.095212 3.339375 -3.910862 -4.115144 5.547233 -8.899004 -4.058502 7.252847 -15.729281 -2.940827 8.619484 2.506665 7.893488 0.527107 6.712599 11.487322 1.415776 -2.506665 -3.587066 4.525508 -6.712599 -3.944728 6.358327
0.125581 0.000000 1.498684 0.418389 0.000000 0.188372 1.989519 3.030715 0.420055 1.990476 1.723313 0.424050 1.612707 0.887926 0.348226 1.297623 1.454680 0.275055 0.938596 0.644036 0.201193 5.197792 9.631626 1.095623 10.658369 12.882438 2.256637 17.914285 15.509819 3.816449 -5.197792 -3.485720 5.358545 -10.658369 -3.137778 6.969758 -17.914285 -1.726192 8.232963 3.335375 7.810972 0.702104 7.931129 11.281428 1.675739 -3.335375 -3.192553 4.408067 -7.931129 -3.322050 6.168854
0.156918 0.000000 1.497944 0.522642 0.000000 0.235377 2.472136 2.936815 0.523544 2.227799 1.650288 0.476488 1.717224 0.842676 0.372406 1.513275 1.400764 0.321911 1.020748 0.613774 0.219726 6.470476 9.426415 1.366766 12.388520 12.479805 2.630889 20.050188 14.852593 4.288396 -6.470476 -2.840153 5.162659 -12.388520 -2.202522 6.677307 -20.050188 -0.503562 7.835383 4.158234 7.705301 0.876498 9.135744 11.042089 1.934260 -4.158234 -2.788576 4.286836 -9.135744 -2.689524 5.974078
0.188217 0.000000 1.497040 0.626666 0.000000 0.282325 2.944996 2.823332 0.626020 2.459015 1.569620 0.528287 1.818728 0.794927 0.396267 1.723908 1.338999 0.368244 1.100633 0.581208 0.238021 7.725425 9.177546 1.636074 14.084715 12.019372 3.001608 22.131135 14.126578 4.754584 -7.725425 -2.181432 4.959839 -14.084715 -1.257065 6.375888 -22.131135 0.721400 7.427278 4.973798 7.576786 1.050138 10.324333 10.770016 2.191119 -4.973798 -2.376333 4.161920 -10.324333 -2.049025 5.774167
0.219469 0.000000 1.495972 0.730415 0.000000 0.329203 3.406234 2.691023 0.727285 2.683491 1.481682 0.579376 1.917041 0.744822 0.419787 1.928824 1.269732 0.413979 1.178075 0.546462 0.256056 8.959199 8.886172 1.903185 15.742304 11.503273 3.368294 24.151421 13.335136 5.214385 -8.959199 -1.512608 4.750357 -15.742304 -0.305787 6.065904 -24.151421 1.943021 7.009197 5.780636 7.425811 1.222876 11.494810 10.466015 2.446094 -5.780636 -1.957044 4.033426 -11.494810 -1.402451 5.569291
0.250666 0.000000 1.494739 0.833844 0.000000 0.376000 3.854029 2.540769 0.827143 2.900612 1.386882 0.629687 2.011991 0.692509 0.442946 2.127343 1.193349 0.459040 1.252901 0.509666 0.273813 10.168416 8.553643 2.167738 17.356746 10.933897 3.730457 26.105510 12.481934 5.667182 -10.168416 -0.836778 4.534493 -17.356746 0.646908 5.747772 -26.105510 3.155643 6.581702 6.577333 7.252821 1.394562 12.645120 10.130987 2.698966 -6.577333 -1.531954 3.901464 -12.645120 -0.751720 5.359628
0.281802 0.000000 1.493343 0.936907 0.000000 0.422704 4.286614 2.373574 0.925402 3.109783 1.285658 0.679152 2.103412 0.638143 0.465725 2.318808 1.110279 0.503356 1.324946 0.470958 0.291271 11.349762 8.181497 2.429381 18.923613 10.313881 4.087609 27.988046 11.570922 6.112367 -11.349762 -0.157073 4.312539 -18.923613 1.596607 5.421920 -27.988046 4.353650 6.145365 7.362491 7.058330 1.565049 13.773247 9.765925 2.949518 -7.362491 -1.102322 3.766148 -13.773247 -0.098760 5.145356
0.312869 0.000000 1.491783 1.039558 0.000000 0.469303 4.702282 2.190551 1.021870 3.310430 1.178480 0.727705 2.191142 0.581885 0.488103 2.502582 1.020987 0.546853 1.394048 0.430483 0.308413 12.500000 7.771460 2.687760 20.438613 9.646097 4.439270 29.793869 10.606321 6.549341 -12.500000 0.523360 4.084793 -20.438613 2.538912 5.088785 -29.793869 5.531493 5.700774 8.134733 6.842914 1.734191 14.877211 9.371911 3.197534 -8.134733 -0.669423 3.627595 -14.877211 0.554493 4.926662
0.343858 0.000000 1.490059 1.141754 0.000000 0.515787 5.099392 1.992921 1.116363 3.502003 1.065844 0.775280 2.275028 0.523902 0.510061 2.678057 0.925974 0.589462 1.460056 0.388393 0.325220 13.615976 7.325429 2.942528 21.897591 8.933637 4.784968 31.518029 9.592596 6.977519 -13.615976 1.201368 3.851559 -21.897591 3.469457 4.748815 -31.518029 6.683718 5.248526 8.892704 6.607212 1.901842 15.955075 8.950115 3.442802 -8.892704 -0.234539 3.485923 -15.955075 1.206102 4.703732
0.374763 0.000000 1.488172 1.243449 0.000000 0.562144 5.476377 1.782002 1.208696 3.683978 0.948272 0.821814 2.354923 0.464366 0.531581 2.844650 0.825773 0.631113 1.522822 0.344845 0.341672 14.694631 6.845471 3.193345 23.296550 8.179802 5.124239 33.155800 8.534445 7.396324 -14.694631 1.873813 3.613153 -23.296550 4.383934 4.402466 -33.155800 7.804987 4.789228 9.635073 6.351923 2.067858 17.004948 8.501785 3.685110 -9.635073 0.201041 3.341254 -17.004948 1.854135 4.476758
0.405575 0.000000 1.486122 1.344599 0.000000 0.608362 5.831749 1.559200 1.298691 3.855855 0.826307 0.867244 2.430687 0.403453 0.552644 3.001809 0.720944 0.671738 1.582207 0.300004 0.357753 15.733010 6.333809 3.439872 24.631654 7.388083 5.456627 34.702693 7.436766 7.805194 -15.733010 2.537579 3.369892 -24.631654 5.278107 4.050204 -34.702693 8.890108 4.323497 10.360540 6.077804 2.232096 18.024989 8.028252 3.924249 -10.360540 0.636024 3.193712 -18.024989 2.496672 4.245936
0.436286 0.000000 1.483908 1.445159 0.000000 0.654430 6.164106 1.326002 1.386174 4.017163 0.700516 0.911509 2.502187 0.341344 0.573231 3.149014 0.612075 0.711271 1.638078 0.254038 0.373444 16.728265 5.792812 3.681778 25.899245 6.562146 5.781685 36.154468 6.304644 8.203581 -16.728265 3.189593 3.122106 -25.899245 6.147835 3.692501 -36.154468 9.934054 3.851959 11.067831 5.785666 2.394415 19.013408 7.530918 4.160015 -11.067831 1.069122 3.043425 -19.013408 3.131807 4.011463
0.466891 0.000000 1.481533 1.545085 0.000000 0.700336 6.472136 1.083961 1.470977 4.167461 0.571480 0.954550 2.569296 0.278224 0.593326 3.285775 0.499777 0.749649 1.690313 0.207118 0.388729 17.677670 5.224986 3.918739 27.095848 5.705817 6.098978 37.507147 5.143323 8.590948 -17.677670 3.826834 2.870126 -27.095848 6.989089 3.329838 -37.507147 10.931992 3.375246 11.755705 5.476377 2.554676 19.968471 7.011259 4.392205 -11.755705 1.499051 2.890522 -19.968471 3.757658 3.773542
0.497380 0.000000 1.478994 1.644333 0.000000 0.746070 6.754623 0.834693 1.552934 4.306336 0.439798 0.996308 2.631899 0.214278 0.612911 3.411639 0.384678 0.786808 1.738796 0.159421 0.403591 18.578621 4.632960 4.150437 28.218183 4.823062 6.408078 38.757021 3.958181 8.966775 -18.578621 4.446352 2.614290 -28.218183 7.797974 2.962703 -38.757021 11.879299 2.894000 12.422956 5.150853 2.712740 20.888503 6.470815 4.620618 -12.422956 1.924535 2.735134 -20.888503 4.372369 3.532377
0.527746 0.000000 1.476293 1.742860 0.000000 0.791619 7.010453 0.579858 1.631888 4.433407 0.306079 1.036729 2.689884 0.149697 0.631969 3.526189 0.267423 0.822688 1.783417 0.111126 0.418015 19.428649 4.019478 4.376559 29.263174 3.917969 6.708571 39.900665 2.754707 9.330559 -19.428649 5.045276 2.354943 -29.263174 8.570743 2.591589 -39.900665 12.771588 2.408867 13.068412 4.810059 2.868473 21.771889 5.911188 4.845060 -13.068412 2.344314 2.577394 -21.771889 4.974118 3.288175
0.557982 0.000000 1.473431 1.840623 0.000000 0.836973 7.238616 0.321157 1.707686 4.548327 0.170942 1.075757 2.743150 0.084673 0.650484 3.629045 0.148670 0.857231 1.824079 0.062414 0.431983 20.225425 3.387379 4.596803 30.227956 2.994731 7.000053 40.934944 1.538474 9.681809 -20.225425 5.620834 2.092433 -30.227956 9.303817 2.216993 -40.934944 13.604725 1.920498 13.690942 4.455005 3.021739 22.617080 5.334037 5.065336 -13.690942 2.757143 2.417439 -22.617080 5.561121 3.041146
0.588081 0.000000 1.470407 1.937578 0.000000 0.882121 7.438212 0.060315 1.780180 4.650780 0.035013 1.113339 2.791604 0.019397 0.668439 3.719866 0.029084 0.890381 1.860691 0.013468 0.445481 20.966764 2.739592 4.810872 31.109886 2.057622 7.282133 41.857023 0.315116 10.020055 -20.966764 6.170359 1.827113 -31.109886 9.993801 1.839419 -41.857023 14.374854 1.429549 14.289454 4.086744 3.172408 23.422592 4.741073 5.281257 -14.289454 3.161799 2.255405 -23.422592 6.131638 2.791503
0.618034 0.000000 1.467221 2.033683 0.000000 0.927051 7.608452 -0.200930 1.849232 4.740486 -0.101078 1.149427 2.835160 -0.045936 0.685820 3.798350 -0.090665 0.922084 1.893172 -0.035528 0.458495 21.650635 2.079117 5.018480 31.906546 1.110984 7.554430 42.664375 -0.909701 10.344842 -21.650635 6.691306 1.559338 -31.906546 10.637499 1.459375 -42.664375 15.078405 0.936680 14.862897 3.706368 3.320349 24.187014 4.134053 5.492639 -14.862897 3.557081 2.091432 -24.187014 6.683978 2.539460
0.647835 0.000000 1.463875 2.128896 0.000000 0.971752 7.748665 -0.460835 1.914707 4.817199 -0.236701 1.183970 2.873743 -0.111133 0.702611 3.864237 -0.209906 0.952288 1.921449 -0.084391 0.471009 22.275163 1.409012 5.219346 32.615752 0.159200 7.816581 43.354787 -2.130305 10.655733 -22.275163 7.181263 1.289468 -32.615752 11.231930 1.077370 -43.354787 15.712123 0.442553 15.410265 3.315005 3.465436 24.909003 3.514779 5.699298 -15.410265 3.941819 1.925662 -24.909003 7.216502 2.285234
0.677476 0.000000 1.460368 2.223176 0.000000 1.016214 7.858298 -0.717666 1.976478 4.880707 -0.371227 1.216924 2.907284 -0.176000 0.718799 3.917309 -0.327971 0.980944 1.945461 -0.132938 0.483012 22.838636 0.732382 5.413202 33.235561 -0.793321 8.068233 43.926366 -3.341043 10.952312 -22.838636 7.637960 1.017867 -33.235561 11.774341 0.693919 -43.926366 16.273070 -0.052168 15.930598 2.913814 3.607544 25.587293 2.885084 5.901058 -15.930598 4.314870 1.758236 -25.587293 7.727633 2.029043
0.706950 0.000000 1.456701 2.316480 0.000000 1.060425 7.936918 -0.969713 2.034427 4.930838 -0.504034 1.248242 2.935725 -0.240346 0.734368 3.957390 -0.444198 1.008007 1.965153 -0.180986 0.494488 23.339511 0.052360 5.599786 33.764273 -1.742168 8.309047 44.377546 -4.536307 11.234179 -23.339511 8.059283 0.744898 -33.764273 12.262221 0.309535 -44.377546 16.758650 -0.546820 16.422984 2.503984 3.746550 26.220695 2.246837 6.097744 -16.422984 4.675130 1.589298 -26.220695 8.215855 1.771108
0.736249 0.000000 1.452875 2.408768 0.000000 1.104374 7.984214 -1.215293 2.088441 4.967455 -0.634507 1.277884 2.959015 -0.303979 0.749306 3.984347 -0.557936 1.033431 1.980481 -0.228355 0.505427 23.776413 -0.627905 5.778849 34.200440 -2.682946 8.538700 44.707091 -5.710561 11.500956 -23.776413 8.443279 0.470929 -34.200440 12.693308 -0.075265 -44.707091 17.166612 -1.040736 16.886559 2.086732 3.882336 26.808097 1.601929 6.289188 -16.886559 5.021531 1.418994 -26.808097 8.679722 1.511650
